<svg width="148" height="90" viewBox="0 0 148 90" fill="none" xmlns="http://www.w3.org/2000/svg">
<path d="M17.9032 5.48771L11.441 0.632932C16.4612 0.112683 18.5239 2.6844 19.368 4.71993C23.29 3.19023 27.5594 5.19497 27.5594 5.19497L14.6299 9.60397C15.2822 7.96748 16.4177 6.5396 17.9032 5.48771Z" fill="#060C13"/>
<path d="M49.2644 20.8571L42.8023 16.0023C47.8225 15.4821 49.8852 18.0538 50.7294 20.0893C54.6513 18.5596 58.9208 20.5644 58.9208 20.5644L45.9912 24.9733C46.6435 23.3369 47.7789 21.909 49.2644 20.8571Z" fill="#060C13"/>
<path d="M17.9032 45.1918L11.441 40.337C16.4612 39.8168 18.5239 42.3885 19.368 44.424C23.29 42.8943 27.5594 44.8991 27.5594 44.8991L14.6299 49.3081C15.2822 47.6716 16.4177 46.2437 17.9032 45.1918Z" fill="#060C13"/>
<path d="M114.781 52.3845C104.028 52.3845 95.3111 44.1968 95.3111 34.0966C95.3111 23.9965 104.028 15.8087 114.781 15.8087C125.533 15.8087 134.25 23.9965 134.25 34.0966C134.25 44.1968 125.533 52.3845 114.781 52.3845Z" fill="#FE2629"/>
<path d="M53.7273 90.4504H149.24C149.36 90.4518 149.479 90.4429 149.597 90.4238L104.423 16.9308C104.147 16.473 103.747 16.0921 103.264 15.8271C102.78 15.5621 102.23 15.4225 101.67 15.4225C101.11 15.4225 100.56 15.5621 100.077 15.8271C99.5932 16.0921 99.1932 16.473 98.9177 16.9308L68.602 66.2487L67.1501 68.6082L53.7273 90.4504Z" fill="#12243A"/>
<path opacity="0.87" d="M0.550827 90.4511H83.1592L67.1521 68.6106L66.0007 67.0367L45.1413 38.5748C44.7725 38.1393 44.3102 37.7816 43.7845 37.525C43.2588 37.2685 42.6815 37.1187 42.0901 37.0855C41.4987 37.0524 40.9065 37.1365 40.352 37.3325C39.7976 37.5285 39.2932 37.832 38.8718 38.2231C38.7639 38.3342 38.6635 38.4517 38.5714 38.5748L0.550827 90.4511Z" fill="#12243A"/>
</svg>
