<svg width="85" height="38" viewBox="0 0 85 38" fill="none" xmlns="http://www.w3.org/2000/svg">
<circle cx="79.7456" cy="5.23719" r="4.67945" fill="#FE2629"/>
<path d="M0 5.23718H7.21415V36.8235H0V5.23718Z" fill="#12243A"/>
<rect y="29.9993" width="27.8817" height="7.01917" fill="#12243A"/>
<path d="M41.5303 5.23718H33.9262L22.8125 37.0184H30.5141L41.5303 5.23718Z" fill="#12243A"/>
<path fill-rule="evenodd" clip-rule="evenodd" d="M21.4474 5.23718H13.8433L24.8595 37.0184H30.4452L31.5031 33.9931L21.4474 5.23718Z" fill="#12243A"/>
<path fill-rule="evenodd" clip-rule="evenodd" d="M56.5432 37.0184H61.9051L70.3866 5.23718H63.1725L55.5684 33.4071L56.5432 37.0184Z" fill="#12243A"/>
<path fill-rule="evenodd" clip-rule="evenodd" d="M55.1782 5.23718H49.7191L42.115 33.4071L43.0898 37.0184H48.4518L56.0557 8.52549L55.1782 5.23718Z" fill="#12243A"/>
<path fill-rule="evenodd" clip-rule="evenodd" d="M56.4457 37.0184L48.8416 8.52476L49.7189 5.23718H55.1783L62.8075 33.4999L61.8578 37.0184H56.4457Z" fill="#12243A"/>
<path fill-rule="evenodd" clip-rule="evenodd" d="M41.7251 5.23718H34.511L42.9925 37.0184H48.1416L49.2229 33.0128L41.7251 5.23718Z" fill="#12243A"/>
</svg>
